<?xml version="1.0" standalone="no"?>
<!DOCTYPE svg PUBLIC "-//W3C//DTD SVG 20010904//EN"
 "http://www.w3.org/TR/2001/REC-SVG-20010904/DTD/svg10.dtd">
<svg version="1.0" xmlns="http://www.w3.org/2000/svg"
 width="225.000000pt" height="225.000000pt" viewBox="0 0 225.000000 225.000000"
 preserveAspectRatio="xMidYMid meet">
<metadata>
Created by potrace 1.11, written by Peter Selinger 2001-2013
</metadata>
<g transform="translate(0.000000,225.000000) scale(0.100000,-0.100000)"
fill="#000000" stroke="none">
<path d="M982 2240 c-163 -23 -343 -90 -473 -175 -95 -62 -262 -229 -324 -324
-284 -432 -232 -1009 125 -1385 163 -172 353 -279 593 -333 103 -23 336 -23
447 1 270 57 511 212 674 431 152 204 220 411 220 670 0 162 -18 262 -70 399
-59 153 -123 254 -239 375 -158 165 -348 273 -565 322 -99 22 -297 32 -388 19z
m431 -450 c34 -30 35 -30 156 -30 l121 0 -2 -644 c-3 -617 -4 -645 -22 -665
-19 -21 -23 -21 -542 -21 l-523 0 -20 27 c-21 26 -21 30 -19 650 3 605 4 625
22 639 16 11 73 14 297 14 175 0 280 4 284 10 3 6 36 10 72 10 50 0 71 5 90
20 34 27 46 25 86 -10z"/>
<path d="M1336 1762 c-15 -18 -15 -22 10 -65 14 -26 27 -47 29 -47 2 0 15 4
29 10 34 13 34 49 0 89 -30 36 -44 38 -68 13z"/>
<path d="M1208 1718 c11 -18 38 -66 62 -107 45 -77 44 -77 76 -18 14 27 13 31
-21 93 l-36 64 -50 0 -51 0 20 -32z"/>
<path d="M613 1723 c-10 -4 -13 -139 -13 -629 l0 -624 525 0 525 0 0 630 0
630 -100 0 -100 0 0 -39 c0 -35 -3 -41 -32 -51 -25 -8 -39 -24 -58 -63 -32
-65 -58 -73 -85 -24 l-18 34 -71 -22 c-136 -42 -134 -43 -51 36 l75 71 -21 29
-20 29 -272 -1 c-150 0 -278 -3 -284 -6z m855 -330 c3 -10 -70 -13 -342 -13
-190 0 -346 4 -346 8 0 5 3 12 7 15 4 4 157 6 341 5 258 -2 336 -6 340 -15z
m2 -163 c0 -6 -122 -10 -345 -10 -223 0 -345 4 -345 10 0 6 122 10 345 10 223
0 345 -4 345 -10z m0 -160 c0 -6 -122 -10 -345 -10 -223 0 -345 4 -345 10 0 6
122 10 345 10 223 0 345 -4 345 -10z m0 -165 c0 -13 -45 -15 -345 -15 -300 0
-345 2 -345 15 0 13 45 15 345 15 300 0 345 -2 345 -15z m-2 -162 c3 -10 -70
-13 -342 -13 -190 0 -346 4 -346 8 0 5 3 12 7 15 4 4 157 6 341 5 258 -2 336
-6 340 -15z m2 -163 c0 -6 -122 -10 -345 -10 -223 0 -345 4 -345 10 0 6 122
10 345 10 223 0 345 -4 345 -10z"/>
<path d="M1174 1608 c-23 -25 -25 -30 -9 -24 11 4 33 10 48 13 19 4 26 10 23
20 -4 8 -6 17 -6 19 0 14 -31 -1 -56 -28z"/>
</g>
</svg>
